<svg width="158" height="57" viewBox="0 0 158 57" fill="none" xmlns="http://www.w3.org/2000/svg">
<g clip-path="url(#clip0_170_1878)">
<path d="M18.0192 7.07251H0.812012V48.224L18.0192 7.07251Z" fill="#FA0C00"/>
<path d="M30.1262 7.07251H47.311V48.224L30.1262 7.07251Z" fill="#FA0C00"/>
<path d="M24.0729 22.2397L35.0249 48.2243H27.8394L24.5661 39.9514H16.551L24.0729 22.2397Z" fill="#FA0C00"/>
<path d="M75.3828 33.2425L77.4118 39.0604C77.479 39.2061 77.5799 39.2734 77.7593 39.2734H81.6603C81.8733 39.2734 81.9069 39.1725 81.8733 38.9595L73.8134 16.5733C73.7798 16.394 73.7461 16.3604 73.5668 16.3604H68.7241C68.5896 16.3604 68.5111 16.4612 68.5111 16.607C68.4438 17.784 68.343 18.1427 68.1972 18.4902L61.0117 38.9259C60.978 39.1725 61.0565 39.2734 61.2583 39.2734H64.7446C64.9576 39.2734 65.0585 39.2061 65.1369 38.9931L67.0538 33.2425H75.3828ZM68.1636 29.4423C69.2173 26.2587 70.6074 22.1783 71.1679 19.8466H71.2015C71.8965 22.2904 73.5331 27.1331 74.273 29.4423H68.1636Z" fill="#FA0C00"/>
<path d="M92.2351 39.6208C94.3313 39.6208 96.5621 39.2396 98.8265 38.2644C99.0059 38.1971 99.0395 38.1187 99.0395 37.9505C98.9722 37.3227 98.8938 36.4147 98.8938 35.7197V14.6451C98.8938 14.5106 98.8938 14.4434 98.7256 14.4434H94.9255C94.7798 14.4434 94.7125 14.5106 94.7125 14.69V21.8307C94.1184 21.7634 93.7036 21.7298 93.2104 21.7298C87.0785 21.7298 83.312 25.7766 83.312 30.8322C83.312 36.695 87.1794 39.6208 92.2351 39.6208V39.6208ZM94.7125 35.7197C94.0847 35.9215 93.3897 36 92.6835 36C89.9034 36 87.6278 34.4306 87.6278 30.6192C87.6278 27.2451 89.9707 25.2497 93.0758 25.2497C93.7036 25.2497 94.2529 25.317 94.7125 25.4963V35.7197Z" fill="#FA0C00"/>
<path d="M111.162 21.7297C105.927 21.7297 102.688 25.7429 102.688 30.6977C102.688 35.1256 105.266 39.6207 111.084 39.6207C116.005 39.6207 119.458 35.9999 119.458 30.5856C119.458 25.8101 116.532 21.7297 111.162 21.7297ZM110.949 25.2496C113.909 25.2496 115.164 27.7943 115.164 30.6977C115.164 34.2848 113.315 36.0672 111.162 36.0672C108.506 36.0672 106.936 33.8364 106.936 30.6192C106.936 27.3123 108.607 25.2496 110.949 25.2496V25.2496Z" fill="#FA0C00"/>
<path d="M123.387 14.4434C123.241 14.4434 123.14 14.5106 123.14 14.69V38.5446C123.14 38.6455 123.241 38.8249 123.387 38.8585C125.057 39.3742 126.806 39.6208 128.611 39.6208C133.778 39.6208 138.8 36.4147 138.8 29.9578C138.8 25.2833 135.594 21.7298 130.572 21.7298C129.418 21.7298 128.342 21.9091 127.4 22.223L127.355 14.7236C127.355 14.477 127.288 14.4434 127.041 14.4434H123.387ZM134.507 30.3838C134.507 34.2512 131.861 36.0672 129.003 36.0672C128.409 36.0672 127.882 36.0336 127.4 35.8879V25.7093C127.949 25.4963 128.611 25.317 129.832 25.317C132.59 25.317 134.507 27.0657 134.507 30.3838Z" fill="#FA0C00"/>
<path d="M152.982 31.6393C154.686 31.6393 156.087 31.6057 156.57 31.4936C156.749 31.4599 156.816 31.3927 156.85 31.2469C156.951 30.8658 156.995 30.0699 156.995 29.0946C156.995 25.7765 155 21.7297 149.844 21.7297C144.575 21.7297 141.649 26.0231 141.649 30.8658C141.649 35.1592 143.914 39.6207 150.258 39.6207C152.635 39.6207 154.171 39.2396 155.493 38.6118C155.628 38.5446 155.695 38.4325 155.695 38.2307V35.3273C155.695 35.1592 155.594 35.1256 155.493 35.1928C154.171 35.7533 152.736 36.0336 151.166 36.0336C147.613 36.0336 145.999 34.0718 145.898 31.6393H152.982ZM145.898 28.635C146.178 26.9311 147.254 25.0815 149.664 25.0815C152.321 25.0815 153.016 27.3123 153.016 28.3212C153.016 28.3548 153.016 28.5005 153.016 28.6014C152.87 28.635 152.422 28.635 151.099 28.635H145.898Z" fill="#FA0C00"/>
</g>
<defs>
<clipPath id="clip0_170_1878">
<rect width="156.376" height="56.4364" fill="white" transform="translate(0.812012 0.0180664)"/>
</clipPath>
</defs>
</svg>
