<svg width="129" height="57" viewBox="0 0 129 57" fill="none" xmlns="http://www.w3.org/2000/svg">
<g clip-path="url(#clip0_170_1885)">
<path fill-rule="evenodd" clip-rule="evenodd" d="M79.4697 44.9755C72.0649 50.4334 61.3319 53.3455 52.0911 53.3455C39.134 53.3455 27.4692 48.5531 18.6443 40.5825C17.951 39.9557 18.5722 39.1015 19.4042 39.5896C28.928 45.1308 40.7037 48.4644 52.8676 48.4644C61.0712 48.4644 70.0958 46.7671 78.3937 43.2449C79.6472 42.7124 80.6956 44.0658 79.4697 44.9755Z" fill="#FF9900"/>
<path fill-rule="evenodd" clip-rule="evenodd" d="M82.5483 41.4533C81.6053 40.2442 76.2916 40.882 73.9065 41.1649C73.1799 41.2537 73.0689 40.6213 73.7234 40.1665C77.9556 37.1879 84.9001 38.0476 85.7099 39.0461C86.5197 40.05 85.4991 47.0112 81.5221 50.3336C80.912 50.8439 80.3296 50.5722 80.6014 49.8955C81.4944 47.6657 83.4967 42.6681 82.5483 41.4533Z" fill="#FF9900"/>
<path fill-rule="evenodd" clip-rule="evenodd" d="M74.0732 19.1389V16.2435C74.0732 15.8053 74.4061 15.5113 74.8054 15.5113H87.7681C88.1841 15.5113 88.5169 15.8108 88.5169 16.2435V18.7229C88.5114 19.1389 88.1619 19.6825 87.5407 20.5422L80.8236 30.1325C83.3196 30.0715 85.9543 30.4431 88.2174 31.7189C88.7277 32.0073 88.8664 32.4288 88.9052 32.8448V35.9344C88.9052 36.3559 88.4393 36.8496 87.9512 36.5944C83.9631 34.5033 78.6659 34.2759 74.2563 36.6166C73.807 36.8607 73.3355 36.3726 73.3355 35.951V33.0168C73.3355 32.5453 73.3411 31.741 73.8126 31.0255L81.5946 19.8655H74.8221C74.4061 19.8655 74.0732 19.5715 74.0732 19.1389Z" fill="black"/>
<path fill-rule="evenodd" clip-rule="evenodd" d="M26.7874 37.2046H22.8437C22.4665 37.1769 22.167 36.894 22.1392 36.5334V16.2935C22.1392 15.8885 22.4776 15.5668 22.8991 15.5668H26.5766C26.9593 15.5835 27.2644 15.8774 27.2921 16.2435V18.8893H27.3643C28.3238 16.3323 30.1265 15.1397 32.556 15.1397C35.0243 15.1397 36.5663 16.3323 37.6756 18.8893C38.6296 16.3323 40.7984 15.1397 43.1225 15.1397C44.7754 15.1397 46.5837 15.822 47.6874 17.3529C48.9355 19.0557 48.6803 21.5296 48.6803 23.6983L48.6748 36.4724C48.6748 36.8773 48.3364 37.2046 47.9149 37.2046H43.9767C43.5829 37.1769 43.2667 36.8607 43.2667 36.4724V25.7451C43.2667 24.8909 43.3444 22.7609 43.1558 21.9511C42.8618 20.5922 41.9799 20.2094 40.8372 20.2094C39.8832 20.2094 38.8848 20.8473 38.4799 21.8679C38.075 22.8885 38.1138 24.5969 38.1138 25.7451V36.4724C38.1138 36.8773 37.7755 37.2046 37.3539 37.2046H33.4157C33.0164 37.1769 32.7057 36.8607 32.7057 36.4724L32.7002 25.7451C32.7002 23.4876 33.0718 20.1651 30.2707 20.1651C27.4364 20.1651 27.5473 23.4043 27.5473 25.7451V36.4724C27.5473 36.8773 27.2089 37.2046 26.7874 37.2046Z" fill="black"/>
<path fill-rule="evenodd" clip-rule="evenodd" d="M99.6768 15.1397C105.529 15.1397 108.696 20.1651 108.696 26.5549C108.696 32.7284 105.196 37.6261 99.6768 37.6261C93.9304 37.6261 90.802 32.6008 90.802 26.3386C90.802 20.0375 93.9692 15.1397 99.6768 15.1397ZM99.7101 19.272C96.8036 19.272 96.6205 23.2324 96.6205 25.7007C96.6205 28.1745 96.5817 33.455 99.6768 33.455C102.733 33.455 102.877 29.1951 102.877 26.5993C102.877 24.8909 102.805 22.8497 102.289 21.23C101.846 19.8212 100.964 19.272 99.7101 19.272Z" fill="black"/>
<path fill-rule="evenodd" clip-rule="evenodd" d="M116.284 37.2046H112.357C111.963 37.1769 111.647 36.8607 111.647 36.4724L111.641 16.2269C111.675 15.8553 112.002 15.5668 112.401 15.5668H116.056C116.4 15.5835 116.683 15.8164 116.761 16.1326V19.2277H116.833C117.937 16.4599 119.484 15.1397 122.208 15.1397C123.977 15.1397 125.702 15.7776 126.811 17.5248C127.843 19.1445 127.843 21.8679 127.843 23.8259V36.5667C127.799 36.9217 127.472 37.2046 127.083 37.2046H123.128C122.768 37.1769 122.468 36.9106 122.43 36.5667V25.5731C122.43 23.36 122.685 20.1207 119.961 20.1207C119.002 20.1207 118.12 20.7641 117.682 21.7403C117.127 22.9773 117.055 24.2086 117.055 25.5731V36.4724C117.049 36.8773 116.705 37.2046 116.284 37.2046Z" fill="black"/>
<path fill-rule="evenodd" clip-rule="evenodd" d="M63.7397 27.5366C63.7397 29.0731 63.7786 30.3544 63.002 31.7189C62.3752 32.8282 61.3768 33.5105 60.273 33.5105C58.7588 33.5105 57.8713 32.3567 57.8713 30.6539C57.8713 27.2926 60.8832 26.6824 63.7397 26.6824V27.5366ZM67.7167 37.1491C67.456 37.3821 67.0789 37.3987 66.7849 37.2434C65.4759 36.1562 65.2373 35.6515 64.5218 34.6143C62.3586 36.8218 60.8222 37.4819 58.0211 37.4819C54.6986 37.4819 52.1193 35.4352 52.1193 31.3361C52.1193 28.1357 53.8499 25.9558 56.3238 24.8908C58.4648 23.9479 61.4545 23.7815 63.7397 23.5208V23.0105C63.7397 22.0731 63.8118 20.9638 63.2572 20.1539C62.7801 19.4273 61.8594 19.1278 61.044 19.1278C59.5409 19.1278 58.2041 19.8988 57.8768 21.4962C57.8103 21.8512 57.5496 22.2007 57.1891 22.2173L53.3674 21.8069C53.0456 21.7348 52.6851 21.4741 52.7794 20.9804C53.6558 16.3433 57.8491 14.9456 61.5987 14.9456C63.5179 14.9456 66.025 15.4559 67.5392 16.9091C69.4584 18.7007 69.2754 21.0913 69.2754 23.6927V29.8385C69.2754 31.6856 70.0408 32.4954 70.7619 33.4938C71.0115 33.8488 71.067 34.2759 70.7452 34.5421C69.941 35.2133 68.5099 36.4613 67.7223 37.1602L67.7167 37.1491Z" fill="black"/>
<path fill-rule="evenodd" clip-rule="evenodd" d="M12.0386 27.5366C12.0386 29.0731 12.0774 30.3543 11.3009 31.7188C10.6741 32.8282 9.68124 33.5104 8.57189 33.5104C7.05764 33.5104 6.17571 32.3567 6.17571 30.6539C6.17571 27.2926 9.18758 26.6824 12.0386 26.6824V27.5366ZM16.0156 37.1491C15.7549 37.382 15.3777 37.3987 15.0837 37.2434C13.7747 36.1562 13.5418 35.6515 12.8207 34.6142C10.6575 36.8218 9.12657 37.4819 6.31992 37.4819C3.00298 37.4819 0.418213 35.4351 0.418213 31.3361C0.418213 28.1357 2.15434 25.9558 4.62263 24.8908C6.76366 23.9479 9.75334 23.7815 12.0386 23.5208V23.0105C12.0386 22.0731 12.1107 20.9637 11.5616 20.1539C11.079 19.4273 10.1583 19.1278 9.34843 19.1278C7.84527 19.1278 6.50297 19.8988 6.17571 21.4962C6.10915 21.8512 5.84845 22.2007 5.49346 22.2173L1.66623 21.8069C1.34451 21.7347 0.989524 21.474 1.07827 20.9804C1.9602 16.3433 6.14797 14.9456 9.89756 14.9456C11.8167 14.9456 14.3238 15.4559 15.8381 16.9091C17.7573 18.7007 17.5742 21.0913 17.5742 23.6927V29.8385C17.5742 31.6856 18.3397 32.4954 19.0607 33.4938C19.3159 33.8488 19.3714 34.2759 19.0496 34.5421C18.2454 35.2133 16.8143 36.4613 16.0267 37.1602L16.0156 37.1491Z" fill="black"/>
</g>
<defs>
<clipPath id="clip0_170_1885">
<rect width="128" height="55.8545" fill="white" transform="translate(0.418213 0.981934)"/>
</clipPath>
</defs>
</svg>
