<svg width="143" height="40" viewBox="0 0 143 40" fill="none" xmlns="http://www.w3.org/2000/svg">
<g clip-path="url(#clip0_170_1888)">
<path d="M30.5801 9.04777C28.2891 7.98358 25.8395 7.21016 23.2785 6.76978C22.964 7.33434 22.5966 8.09368 22.3432 8.69774C19.6208 8.29126 16.9235 8.29126 14.2511 8.69774C13.9978 8.09368 13.622 7.33434 13.3047 6.76978C10.741 7.21016 8.28855 7.98642 5.99759 9.0534C1.37671 15.9861 0.124065 22.7466 0.750389 29.411C3.8152 31.6834 6.78537 33.0637 9.70542 33.967C10.4264 32.9818 11.0694 31.9346 11.6233 30.8309C10.5683 30.4329 9.55788 29.9417 8.60312 29.3715C8.85641 29.1852 9.10417 28.9905 9.34355 28.79C15.1669 31.4943 21.4942 31.4943 27.2481 28.79C27.4902 28.9905 27.738 29.1852 27.9885 29.3715C27.0309 29.9445 26.0177 30.4357 24.9627 30.8337C25.5166 31.9346 26.1569 32.9847 26.8806 33.9698C29.8035 33.0665 32.7764 31.6862 35.8412 29.411C36.5761 21.6852 34.5858 14.9868 30.5801 9.04777ZM12.4167 25.3124C10.6686 25.3124 9.23497 23.6922 9.23497 21.7191C9.23497 19.746 10.638 18.1229 12.4167 18.1229C14.1955 18.1229 15.629 19.7431 15.5984 21.7191C15.6012 23.6922 14.1955 25.3124 12.4167 25.3124ZM24.1749 25.3124C22.4268 25.3124 20.9932 23.6922 20.9932 21.7191C20.9932 19.746 22.3961 18.1229 24.1749 18.1229C25.9536 18.1229 27.3872 19.7431 27.3566 21.7191C27.3566 23.6922 25.9536 25.3124 24.1749 25.3124Z" fill="#23272A"/>
<path d="M48.1585 13.7087H55.7577C57.5896 13.7087 59.1372 13.9994 60.4069 14.5781C61.6731 15.1567 62.6225 15.9641 63.2518 16.9972C63.8805 18.0303 64.1978 19.2131 64.1978 20.5454C64.1978 21.8495 63.8694 23.0322 63.2125 24.0907C62.5556 25.1521 61.5562 25.9905 60.2118 26.6087C58.8675 27.2268 57.2025 27.5373 55.2124 27.5373H48.1585V13.7087ZM55.1343 24.023C56.3675 24.023 57.317 23.7097 57.9792 23.0858C58.6419 22.4592 58.9733 21.6067 58.9733 20.5256C58.9733 19.5235 58.6778 18.7247 58.0879 18.1263C57.4979 17.5278 56.6043 17.2258 55.4099 17.2258H53.0326V24.023H55.1343Z" fill="#23272A"/>
<path d="M75.5748 27.5205C74.5225 27.2438 73.5731 26.843 72.7299 26.3151V23.0351C73.3674 23.5347 74.2217 23.9469 75.2934 24.2715C76.3651 24.5933 77.4009 24.7542 78.4027 24.7542C78.8704 24.7542 79.2241 24.6921 79.4633 24.5678C79.7029 24.4437 79.8228 24.2941 79.8228 24.1219C79.8228 23.9243 79.7587 23.7606 79.6277 23.6279C79.4967 23.4952 79.2435 23.3851 78.868 23.292L76.5296 22.7585C75.1906 22.4423 74.2412 22.0048 73.6764 21.4431C73.1112 20.8842 72.8299 20.1502 72.8299 19.2413C72.8299 18.4764 73.0749 17.8131 73.5707 17.2456C74.0631 16.6783 74.7646 16.2407 75.6748 15.9331C76.5854 15.6226 77.6483 15.4673 78.8704 15.4673C79.9615 15.4673 80.9609 15.5859 81.8715 15.823C82.7817 16.0601 83.5332 16.3621 84.1318 16.7319V19.8341C83.5191 19.4643 82.8176 19.1736 82.0161 18.9534C81.2171 18.7361 80.3962 18.6288 79.5496 18.6288C78.3275 18.6288 77.7182 18.8405 77.7182 19.2611C77.7182 19.4587 77.8128 19.6055 78.002 19.7043C78.1912 19.8031 78.5391 19.9047 79.0431 20.012L80.9915 20.3676C82.264 20.5906 83.213 20.983 83.8364 21.5419C84.4603 22.1008 84.7717 22.9279 84.7717 24.0231C84.7717 25.2227 84.257 26.174 83.2241 26.8797C82.1912 27.5854 80.7271 27.9382 78.8287 27.9382C77.7124 27.9354 76.6271 27.7971 75.5748 27.5205Z" fill="#23272A"/>
<path d="M89.3712 27.1054C88.2554 26.5521 87.4117 25.8013 86.8494 24.8528C86.2871 23.9044 86.0033 22.8374 86.0033 21.6518C86.0033 20.4663 86.2954 19.4049 86.88 18.4706C87.4646 17.5363 88.3219 16.8023 89.4522 16.2688C90.5822 15.7354 91.9323 15.47 93.5051 15.47C95.4535 15.47 97.071 15.885 98.3571 16.7148V20.3308C97.9035 20.0146 97.3742 19.7577 96.7702 19.5602C96.1662 19.3626 95.5204 19.2638 94.8301 19.2638C93.6221 19.2638 92.6785 19.4868 91.9964 19.9356C91.3142 20.3844 90.9722 20.9687 90.9722 21.6941C90.9722 22.4055 91.3031 22.987 91.9658 23.4443C92.6285 23.8987 93.5886 24.1274 94.8495 24.1274C95.4981 24.1274 96.1385 24.0314 96.7702 23.8423C97.3994 23.6503 97.9423 23.4161 98.3959 23.1394V26.6368C96.9681 27.5062 95.3118 27.9409 93.427 27.9409C91.8406 27.9352 90.4875 27.6586 89.3712 27.1054Z" fill="#23272A"/>
<path d="M103.217 27.1056C102.093 26.5523 101.235 25.7958 100.645 24.8333C100.055 23.8707 99.7571 22.7981 99.7571 21.6125C99.7571 20.427 100.052 19.3684 100.645 18.4398C101.238 17.5111 102.09 16.7828 103.209 16.2549C104.325 15.7271 105.658 15.4646 107.203 15.4646C108.748 15.4646 110.082 15.7271 111.198 16.2549C112.314 16.7828 113.166 17.5054 113.751 18.4285C114.335 19.3515 114.627 20.41 114.627 21.6097C114.627 22.7952 114.335 23.8679 113.751 24.8304C113.166 25.793 112.311 26.5495 111.187 27.1028C110.062 27.656 108.734 27.9327 107.201 27.9327C105.667 27.9327 104.339 27.6588 103.217 27.1056ZM109.138 23.5997C109.611 23.1199 109.851 22.4848 109.851 21.6944C109.851 20.904 109.614 20.2745 109.138 19.8088C108.665 19.3402 108.019 19.1059 107.201 19.1059C106.368 19.1059 105.717 19.3402 105.241 19.8088C104.768 20.2774 104.531 20.904 104.531 21.6944C104.531 22.4848 104.768 23.1199 105.241 23.5997C105.714 24.0796 106.368 24.3224 107.201 24.3224C108.019 24.3195 108.665 24.0796 109.138 23.5997Z" fill="#23272A"/>
<path d="M126.335 16.1985V20.4665C125.84 20.1362 125.2 19.9725 124.406 19.9725C123.368 19.9725 122.566 20.2915 122.009 20.9294C121.45 21.5674 121.171 22.5609 121.171 23.9045V27.5403H116.398V15.9811H121.074V19.6563C121.333 18.3127 121.754 17.3219 122.332 16.6811C122.909 16.0432 123.654 15.7243 124.562 15.7243C125.25 15.7243 125.84 15.8823 126.335 16.1985Z" fill="#23272A"/>
<path d="M142.197 13.3135V27.5401H137.423V24.9517C137.019 25.9255 136.407 26.6679 135.583 27.176C134.759 27.6813 133.74 27.9353 132.532 27.9353C131.452 27.9353 130.511 27.67 129.706 27.1365C128.902 26.603 128.281 25.8719 127.844 24.9432C127.41 24.0145 127.19 22.9645 127.19 21.7902C127.176 20.5793 127.407 19.4925 127.883 18.5299C128.357 17.5674 129.027 16.8166 129.89 16.2774C130.753 15.7382 131.739 15.4673 132.844 15.4673C135.118 15.4673 136.643 16.4693 137.423 18.4706V13.3135H142.197ZM136.71 23.5206C137.197 23.0407 137.44 22.4169 137.44 21.6548C137.44 20.918 137.203 20.3167 136.73 19.8566C136.256 19.3966 135.608 19.1651 134.792 19.1651C133.988 19.1651 133.345 19.3993 132.863 19.8679C132.381 20.3365 132.142 20.9434 132.142 21.6942C132.142 22.4451 132.381 23.0577 132.863 23.5319C133.345 24.0061 133.979 24.2432 134.773 24.2432C135.577 24.2404 136.223 24.0004 136.71 23.5206Z" fill="#23272A"/>
<path d="M68.2208 17.2116C69.5351 17.2116 70.6009 16.2409 70.6009 15.0437C70.6009 13.8464 69.5351 12.8758 68.2208 12.8758C66.906 12.8758 65.8407 13.8464 65.8407 15.0437C65.8407 16.2409 66.906 17.2116 68.2208 17.2116Z" fill="#23272A"/>
<path d="M65.8386 18.705C67.2969 19.3429 69.1065 19.3711 70.5983 18.705V27.6022H65.8386V18.705Z" fill="#23272A"/>
</g>
<defs>
<clipPath id="clip0_170_1888">
<rect width="141.964" height="39.5636" fill="white" transform="translate(0.600098 0.127441)"/>
</clipPath>
</defs>
</svg>
