<svg width="132" height="57" viewBox="0 0 132 57" fill="none" xmlns="http://www.w3.org/2000/svg">
<g clip-path="url(#clip0_170_1877)">
<path d="M56.3856 30.5017C56.3856 36.696 51.5397 41.2605 45.5928 41.2605C39.6459 41.2605 34.8 36.696 34.8 30.5017C34.8 24.2637 39.6459 19.7429 45.5928 19.7429C51.5397 19.7429 56.3856 24.2637 56.3856 30.5017ZM51.661 30.5017C51.661 26.6309 48.8525 23.9824 45.5928 23.9824C42.3331 23.9824 39.5246 26.6309 39.5246 30.5017C39.5246 34.3337 42.3331 37.021 45.5928 37.021C48.8525 37.021 51.661 34.3289 51.661 30.5017Z" fill="#EA4335"/>
<path d="M79.6688 30.5017C79.6688 36.696 74.8229 41.2605 68.876 41.2605C62.9291 41.2605 58.0833 36.696 58.0833 30.5017C58.0833 24.2686 62.9291 19.7429 68.876 19.7429C74.8229 19.7429 79.6688 24.2637 79.6688 30.5017ZM74.9442 30.5017C74.9442 26.6309 72.1357 23.9824 68.876 23.9824C65.6164 23.9824 62.8078 26.6309 62.8078 30.5017C62.8078 34.3337 65.6164 37.021 68.876 37.021C72.1357 37.021 74.9442 34.3289 74.9442 30.5017Z" fill="#FBBC05"/>
<path d="M101.982 20.3929V39.7083C101.982 47.6537 97.2965 50.8988 91.757 50.8988C86.5425 50.8988 83.4042 47.4112 82.2206 44.559L86.334 42.8467C87.0664 44.5978 88.8612 46.6642 91.7522 46.6642C95.298 46.6642 97.4954 44.4765 97.4954 40.3583V38.8109H97.3305C96.273 40.1158 94.2357 41.2557 91.6649 41.2557C86.2855 41.2557 81.3572 36.5699 81.3572 30.5405C81.3572 24.4675 86.2855 19.7429 91.6649 19.7429C94.2309 19.7429 96.2682 20.8828 97.3305 22.1489H97.4954V20.3978H101.982V20.3929ZM97.8301 30.5405C97.8301 26.7521 95.3029 23.9824 92.0869 23.9824C88.8272 23.9824 86.0963 26.7521 86.0963 30.5405C86.0963 34.2901 88.8272 37.021 92.0869 37.021C95.3029 37.021 97.8301 34.2901 97.8301 30.5405Z" fill="#4285F4"/>
<path d="M109.379 9.07153V40.6009H104.771V9.07153H109.379Z" fill="#34A853"/>
<path d="M127.337 34.0427L131.004 36.4874C129.82 38.2385 126.968 41.2556 122.04 41.2556C115.928 41.2556 111.364 36.5311 111.364 30.4968C111.364 24.0988 115.967 19.738 121.511 19.738C127.094 19.738 129.825 24.1813 130.718 26.5823L131.208 27.8047L116.825 33.7613C117.926 35.9199 119.639 37.021 122.04 37.021C124.446 37.021 126.114 35.8374 127.337 34.0427ZM116.049 30.1718L125.663 26.1797C125.135 24.8361 123.544 23.8999 121.671 23.8999C119.27 23.8999 115.928 26.0197 116.049 30.1718V30.1718Z" fill="#EA4335"/>
<path d="M17.357 27.7027V23.1382H32.7385C32.8888 23.9337 32.9664 24.8747 32.9664 25.8934C32.9664 29.3179 32.0303 33.5526 29.0131 36.5697C26.0785 39.6256 22.3289 41.2554 17.3618 41.2554C8.15525 41.2554 0.413574 33.7563 0.413574 24.5497C0.413574 15.3431 8.15525 7.84399 17.3618 7.84399C22.455 7.84399 26.0833 9.84247 28.8094 12.4473L25.5886 15.6681C23.6337 13.8346 20.9853 12.4085 17.357 12.4085C10.6339 12.4085 5.37581 17.8267 5.37581 24.5497C5.37581 31.2727 10.6339 36.6909 17.357 36.6909C21.7177 36.6909 24.2013 34.9399 25.7923 33.3488C27.0826 32.0586 27.9314 30.2153 28.2661 27.6978L17.357 27.7027V27.7027Z" fill="#4285F4"/>
</g>
<defs>
<clipPath id="clip0_170_1877">
<rect width="131.491" height="55.8545" fill="white" transform="translate(0.254395 0.654297)"/>
</clipPath>
</defs>
</svg>
