<svg width="239" height="57" viewBox="0 0 239 57" fill="none" xmlns="http://www.w3.org/2000/svg">
<path d="M13.9497 51.6313C13.9497 54.1196 12.3184 56.138 10.3093 56.138C8.29866 56.138 6.66785 54.1196 6.66785 51.6313V23.0338C6.66785 20.5455 8.29866 18.5283 10.3093 18.5283C12.3184 18.5283 13.9497 20.5455 13.9497 23.0338V51.6313Z" fill="#2357A5"/>
<path d="M41.3956 18.5303H18.2884C16.2778 18.5303 14.6475 20.548 14.6475 23.0358C14.6475 25.5265 16.2778 27.5419 18.2884 27.5419H26.2015V51.658C26.2015 54.144 27.8304 56.1636 29.8415 56.1636C31.8516 56.1636 33.4834 54.144 33.4834 51.658V27.5419H41.3956C43.4057 27.5419 45.036 25.5265 45.036 23.0358C45.036 20.548 43.4057 18.5303 41.3956 18.5303Z" fill="#2357A5"/>
<path d="M48.6165 15.0759C52.6349 23.2829 46.8993 36.8066 35.716 46.2687V46.2711C36.4837 45.7638 37.2485 45.2264 38.0105 44.6547C50.6448 35.1796 57.4209 20.4174 53.1444 11.6818C48.868 2.94453 35.1578 3.54282 22.5226 13.0179C21.7587 13.5908 21.0182 14.1838 20.2977 14.7927C32.253 6.90142 44.5986 6.87008 48.6165 15.0759Z" fill="#F26721"/>
<path d="M19.2596 7.13871C18.9662 5.96873 17.9609 5.31605 17.0157 5.67846C16.2036 5.9912 15.7012 6.9519 15.7613 7.95812L13.954 8.65277C13.3647 6.92884 11.9858 5.71511 10.3765 5.71511C9.40602 5.71511 8.52047 6.15969 7.83962 6.88805L5.00406 3.38816C5.43443 2.53033 5.34998 1.3905 4.74785 0.647955C4.04647 -0.217559 2.91092 -0.215785 2.21145 0.652093C1.51342 1.51997 1.5139 2.92584 2.21575 3.79076C2.81788 4.53331 3.73825 4.63499 4.43008 4.10114L7.28472 7.62468C6.7909 8.42989 6.49556 9.42961 6.49556 10.5192C6.49556 11.1825 6.60243 11.8121 6.79996 12.388L3.06073 15.2582C2.4858 14.5435 1.56924 14.385 0.847352 14.9396C0.0071352 15.5857 -0.252898 16.9538 0.270031 17.9955C0.791528 19.0366 1.89703 19.357 2.73772 18.7108C3.46104 18.1557 3.75257 17.0685 3.49015 16.1149L7.19597 13.2677C7.89735 14.508 9.05962 15.3215 10.3765 15.3215C12.5197 15.3215 14.2569 13.1713 14.2569 10.5192C14.2569 10.2112 14.2307 9.91025 14.1863 9.61761L16.0023 8.92058C16.415 9.79024 17.2681 10.2295 18.0801 9.91675C19.0258 9.55317 19.5545 8.30988 19.2596 7.13871Z" fill="#2357A5"/>
<path d="M63.1368 30.7899H64.729V28.4399C64.729 26.9548 65.1761 25.7133 67.3589 25.7133H67.9491V24.0952H67.3589C65.9815 24.0952 65.3016 24.3613 64.7829 25.5141L64.729 25.4916V23.0317C64.729 21.0588 65.552 20.0609 67.1619 20.0609C68.7898 20.0609 69.631 21.0588 69.631 23.0317V30.7899H71.2232V23.0317C71.2232 20.0609 70.0065 18.4209 67.18 18.4209C64.3535 18.4209 63.1368 20.0609 63.1368 23.0317V30.7899Z" fill="#27272A"/>
<path d="M76.1429 31.0116C76.536 31.0116 76.9654 30.9448 77.413 30.6788L77.1801 29.2605C76.9836 29.3492 76.7507 29.3935 76.5184 29.3935C75.9997 29.3935 75.7669 29.1275 75.7669 28.4624V26.5114C75.7669 24.9377 76.4826 24.3169 77.3772 24.3169L77.5203 23.2533L75.4806 22.0562C75.4987 20.7484 76.411 20.0609 77.6811 20.0609C78.862 20.0609 79.9708 20.6598 79.9708 22.7875V26.9773C79.9708 29.8807 81.2233 31.0116 83.0478 31.0116C84.336 31.0116 85.463 30.2135 85.8748 28.8615H85.964L86.0537 30.7899H87.3596V18.6426H85.7674V25.7358C85.7674 27.9079 84.8012 29.3492 83.3699 29.3492C82.261 29.3492 81.563 28.5954 81.563 26.8218V22.5883C81.563 19.5288 79.6669 18.4209 77.6992 18.4209C75.3556 18.4209 73.8527 19.9947 73.8527 21.945V22.6769L75.91 23.6075L75.8924 23.6743C74.8723 24.0065 74.1747 24.6941 74.1747 26.5339V28.6841C74.1747 30.5014 75.1228 31.0116 76.1429 31.0116Z" fill="#27272A"/>
<path d="M91.6709 23.1651H94.2827V21.6132H91.7244C91.2773 21.6132 91.1342 21.3247 91.1342 20.9481C91.1342 20.6821 91.2057 20.3942 91.2597 20.2387L89.9175 19.9727C89.7386 20.3055 89.6312 20.8151 89.6312 21.2585C89.6312 22.234 90.1861 23.1651 91.6709 23.1651ZM91.6709 29.3715H94.2827V27.8196H91.7244C91.2773 27.8196 91.1342 27.5317 91.1342 27.1551C91.1342 26.8891 91.2057 26.6006 91.2597 26.4457L89.9175 26.1796C89.7386 26.5119 89.6312 27.0221 89.6312 27.4649C89.6312 28.4404 90.1861 29.3715 91.6709 29.3715Z" fill="#27272A"/>
<path d="M98.6479 31.0121C99.0415 31.0121 99.4709 30.9453 99.9356 30.6793L99.7209 29.2385C99.5067 29.3272 99.2562 29.394 99.0415 29.394C98.5048 29.394 98.29 29.128 98.29 28.4404V18.6431H96.6979V28.6846C96.6979 30.5019 97.6641 31.0121 98.6479 31.0121Z" fill="#27272A"/>
<path d="M101.761 30.7899H103.353V23.763C103.353 21.7015 104.301 20.0833 105.983 20.0833C107.378 20.0833 108.111 21.0145 108.111 22.7875V30.7899H109.703V22.6769C109.703 19.7286 108.416 18.4209 106.287 18.4209C104.766 18.4209 103.639 19.2409 103.227 20.5711H103.156L102.869 18.6426H101.761V30.7899Z" fill="#27272A"/>
<path d="M112.602 30.7899H114.194V28.4399C114.194 26.9548 114.641 25.7133 116.823 25.7133H117.414V24.0952H116.823C115.446 24.0952 114.766 24.3613 114.247 25.5141L114.194 25.4916V23.0317C114.194 21.0588 115.017 20.0609 116.627 20.0609C118.255 20.0609 119.095 21.0588 119.095 23.0317V30.7899H120.688V23.0317C120.688 20.0609 119.471 18.4209 116.644 18.4209C113.818 18.4209 112.602 20.0609 112.602 23.0317V30.7899Z" fill="#27272A"/>
<path d="M126.055 31.0122C126.448 31.0122 126.878 30.9454 127.343 30.6793L127.128 29.2386C126.913 29.3272 126.663 29.394 126.448 29.394C125.912 29.394 125.697 29.128 125.697 28.4404V16.892C125.697 15.4506 125.268 14.5644 124.749 14.121L124.767 14.0324H128.398V12.4805H123.622L122.298 13.1899V14.0324C123.354 14.0324 124.105 14.7418 124.105 16.5148V28.6846C124.105 30.502 125.071 31.0122 126.055 31.0122Z" fill="#27272A"/>
<path d="M132.37 31.0121C133.926 31.0121 135.017 30.1915 135.447 28.9949H135.536L135.608 30.7904H136.932V18.6431H135.339V25.6695C135.339 27.9083 134.373 29.3497 132.71 29.3497C131.314 29.3497 130.581 28.4185 130.581 26.6449V18.6431H128.989V26.7561C128.989 29.7038 130.259 31.0121 132.37 31.0121Z" fill="#27272A"/>
<path d="M142.424 31.0122C142.817 31.0122 143.247 30.9454 143.712 30.6793L143.497 29.2386C143.282 29.3272 143.032 29.394 142.817 29.394C142.28 29.394 142.066 29.128 142.066 28.4404V16.892C142.066 15.4506 141.636 14.5644 141.118 14.121L141.135 14.0324H144.767V12.4805H139.991L138.667 13.1899V14.0324C139.722 14.0324 140.474 14.7418 140.474 16.5148V28.6846C140.474 30.502 141.44 31.0122 142.424 31.0122Z" fill="#27272A"/>
<path d="M147.951 31.0116C148.542 31.0116 149.078 30.923 149.544 30.7013L149.293 29.2162C148.989 29.3492 148.649 29.4154 148.255 29.4154C147.039 29.4154 146.323 28.8171 146.323 27.4869C146.323 26.068 147.093 25.3592 149.525 25.1594L151.028 25.0264V30.7899H152.602V22.5883C152.602 19.7286 151.386 18.4209 148.882 18.4209C147.397 18.4209 146.162 18.8862 145.483 19.3296V21.1694C146.448 20.4599 147.54 20.039 148.739 20.039C150.384 20.039 151.028 20.7928 151.028 22.6988V23.3858L149.311 23.5188C146.055 23.763 144.713 25.0932 144.713 27.5313C144.713 29.7701 145.858 31.0116 147.951 31.0116Z" fill="#27272A"/>
<path d="M159.276 30.9894C161.995 30.9894 163.229 29.726 163.229 26.6228V18.6428H161.637V26.7558C161.637 28.3958 161.083 29.3713 159.276 29.3713C157.433 29.3713 156.932 28.3296 156.932 27.0437C156.932 25.5805 157.594 24.9822 159.025 24.9822H159.365V23.5415H159.025C157.952 23.5415 156.879 23.2311 156.879 21.6792C156.879 20.7262 157.344 20.1054 158.345 20.1054C158.793 20.1054 159.24 20.2384 159.508 20.3496L159.794 18.8201C159.455 18.5984 158.757 18.4873 158.185 18.4873C156.056 18.4873 155.268 19.9949 155.268 21.5243C155.268 23.2311 156.199 23.9849 156.932 24.2284V24.3171C156.145 24.4945 155.322 25.182 155.322 27.2211C155.322 29.5261 156.378 30.9894 159.276 30.9894Z" fill="#27272A"/>
<path d="M155.626 16.7146H163.229V15.8496H163.247V13.3447H161.745V15.1402H156.932L155.626 15.8496V16.7146Z" fill="#27272A"/>
<path d="M168.793 31.0119C169.383 31.0119 169.92 30.9232 170.385 30.7015L170.135 29.2164C169.831 29.3494 169.491 29.4157 169.097 29.4157C167.881 29.4157 167.165 28.8174 167.165 27.4872C167.165 26.0683 167.934 25.3594 170.367 25.1596L171.87 25.0266V30.7902H173.444V22.5885C173.444 21.5462 173.283 20.7044 172.872 20.1498C173.659 19.7507 174.231 18.9751 174.231 17.8447H172.675C172.675 18.4655 172.353 18.8645 171.941 19.1081C171.441 18.5985 170.671 18.4211 169.723 18.4211C168.239 18.4211 167.004 18.8864 166.324 19.3298V21.1696C167.29 20.4602 168.382 20.0393 169.58 20.0393C171.226 20.0393 171.87 20.793 171.87 22.6991V23.386L170.153 23.519C166.897 23.7632 165.555 25.0934 165.555 27.5315C165.555 29.7704 166.7 31.0119 168.793 31.0119Z" fill="#27272A"/>
<path d="M179.133 30.7899H180.725V21.8788C180.725 19.3514 179.544 18.4209 177.684 18.4209C176.467 18.4209 175.573 18.7975 175.09 19.086V20.859C175.787 20.3713 176.521 20.0609 177.379 20.0609C178.65 20.0609 179.133 20.726 179.133 22.1667V30.7899Z" fill="#27272A"/>
<path d="M186.378 31.0116C189.205 31.0116 190.207 29.3267 190.207 27.4645C190.207 25.2924 188.793 24.4281 187.076 23.6962C185.198 22.8986 184.607 22.4996 184.607 21.5241C184.607 20.7484 185.18 20.039 186.79 20.039C187.917 20.039 189.044 20.4381 189.652 20.7928V19.1303C189.08 18.6869 187.989 18.4209 186.843 18.4209C184.178 18.4209 183.015 19.773 183.015 21.6128C183.015 23.7186 184.232 24.6054 186.504 25.4916C187.97 26.068 188.615 26.6445 188.615 27.6418C188.615 28.7728 187.684 29.3711 186.414 29.3711C185.216 29.3711 184.106 28.9277 183.355 28.5511L182.89 30.1467C183.731 30.6126 184.965 31.0116 186.378 31.0116Z" fill="#27272A"/>
<path d="M195.019 31.0119C195.609 31.0119 196.146 30.9232 196.611 30.7015L196.361 29.2164C196.057 29.3494 195.717 29.4157 195.324 29.4157C194.107 29.4157 193.391 28.8174 193.391 27.4872C193.391 26.0683 194.16 25.3594 196.594 25.1596L198.096 25.0266V30.7902H199.671V22.5885C199.671 21.5462 199.509 20.7044 199.098 20.1498C199.885 19.7507 200.458 18.9751 200.458 17.8447H198.901C198.901 18.4655 198.58 18.8645 198.168 19.1081C197.667 18.5985 196.898 18.4211 195.95 18.4211C194.465 18.4211 193.231 18.8864 192.551 19.3298V21.1696C193.517 20.4602 194.608 20.0393 195.807 20.0393C197.452 20.0393 198.096 20.793 198.096 22.6991V23.386L196.379 23.519C193.123 23.7632 191.781 25.0934 191.781 27.5315C191.781 29.7704 192.926 31.0119 195.019 31.0119Z" fill="#27272A"/>
<path d="M205.967 31.0121C207.524 31.0121 208.615 30.1915 209.044 28.9949H209.134L209.205 30.7904H210.529V18.6431H208.937V25.6695C208.937 27.9083 207.971 29.3497 206.307 29.3497C204.912 29.3497 204.178 28.4185 204.178 26.6449V18.6431H202.586V26.7561C202.586 29.7038 203.856 31.0121 205.967 31.0121Z" fill="#27272A"/>
<path d="M215.771 31.0121C216.165 31.0121 216.594 30.9453 217.059 30.6793L216.845 29.2385C216.63 29.3272 216.38 29.394 216.165 29.394C215.628 29.394 215.413 29.128 215.413 28.4404V18.6431H213.821V28.6846C213.821 30.5019 214.787 31.0121 215.771 31.0121Z" fill="#27272A"/>
<path d="M218.884 30.7899H220.476V23.763C220.476 21.7015 221.424 20.0833 223.106 20.0833C224.501 20.0833 225.235 21.0145 225.235 22.7875V30.7899H226.827V22.6769C226.827 19.7286 225.539 18.4209 223.41 18.4209C221.889 18.4209 220.762 19.2409 220.351 20.5711H220.279L219.993 18.6426H218.884V30.7899Z" fill="#27272A"/>
<path d="M229.725 30.7902H231.317V28.4402C231.317 26.9551 231.783 25.7136 233.947 25.7136H234.537V24.0955H233.947C232.569 24.0955 231.908 24.3615 231.371 25.5143L231.317 25.4919V23.0319C231.317 21.0591 232.14 20.0611 233.768 20.0611C235.378 20.0611 236.219 21.0591 236.219 23.0319V30.7902H237.811V23.0319C237.811 21.8123 237.614 20.8149 237.113 20.1941C237.954 19.8176 238.563 19.0194 238.563 17.8447H237.006C237.006 18.5098 236.613 18.9532 236.165 19.1525C235.593 18.6204 234.788 18.4211 233.768 18.4211C230.941 18.4211 229.725 20.0611 229.725 23.0319V30.7902Z" fill="#27272A"/>
<path d="M64.593 45.8468C64.8659 45.8468 65.1188 45.7965 65.3311 45.6712L65.22 44.8447C65.0983 44.9198 64.9466 44.957 64.7748 44.957C64.2896 44.957 63.9861 44.6313 63.9861 43.8544C63.9861 43.0404 64.3096 42.6141 65.2705 42.5142L65.9581 42.4391V45.7214H66.8074V41.0735C66.8074 40.4716 66.7262 40.0081 66.5244 39.6948C66.9085 39.4819 67.1509 39.0433 67.1509 38.4048H66.3522C66.3522 38.7305 66.231 38.9558 66.0692 39.0811C65.8264 38.8305 65.4829 38.7305 65.0582 38.7305C64.3707 38.7305 63.8043 38.9936 63.5009 39.2437V40.2464C63.9255 39.8455 64.4413 39.6197 64.9771 39.6197C65.6747 39.6197 65.9581 40.046 65.9581 41.1361V41.537L65.1594 41.612C63.7332 41.7374 63.1368 42.5018 63.1368 43.8799C63.1368 45.145 63.6526 45.8468 64.593 45.8468Z" fill="#27272A"/>
<path d="M69.1734 45.8467C69.3757 45.8467 69.5981 45.8089 69.8004 45.6711L69.6892 44.8695C69.6081 44.9197 69.4969 44.957 69.3958 44.957C69.1634 44.957 69.0623 44.8068 69.0623 44.4184V43.1781C69.0623 42.2883 69.3557 42.0506 69.7498 42.0376L69.8204 41.4488L68.9711 40.7725C68.9711 40.1086 69.3352 39.6196 69.9521 39.6196C70.5585 39.6196 71.0037 40.0583 71.0037 41.1987V45.7214H71.853V41.0858C71.853 39.4192 71.0237 38.7305 69.9721 38.7305C68.7793 38.7305 68.0913 39.6947 68.0913 40.7098V41.123L69.0017 41.6492L68.9916 41.687C68.5264 41.875 68.213 42.2635 68.213 43.3034V44.5561C68.213 45.5712 68.6476 45.8467 69.1734 45.8467Z" fill="#27272A"/>
<path d="M74.5226 45.7214H75.3819V40.672C75.3819 39.2566 74.816 38.7305 73.9662 38.7305C73.4104 38.7305 72.9958 38.9433 72.7734 39.1059V40.0831C73.0664 39.7952 73.3899 39.6196 73.7644 39.6196C74.3103 39.6196 74.5226 40.008 74.5226 40.8351V45.7214Z" fill="#27272A"/>
<path d="M78.6179 45.8469C79.9123 45.8469 80.4481 44.9323 80.4481 43.2657V38.856H79.5988V43.2657C79.5988 44.3937 79.2853 44.9571 78.6179 44.9571C77.9403 44.9571 77.6269 44.3937 77.6269 43.2657V38.856H76.7776V43.2657C76.7776 44.9323 77.3134 45.8469 78.6179 45.8469Z" fill="#27272A"/>
<path d="M79.3866 37.7531H81.4492V36.9261H79.4977C79.2954 36.9261 79.2143 36.7381 79.2143 36.5252C79.2143 36.3875 79.2349 36.2119 79.2549 36.1368L78.5874 35.9736C78.4967 36.1616 78.4462 36.4874 78.4462 36.7256C78.4462 37.2642 78.6885 37.7531 79.3866 37.7531Z" fill="#27272A"/>
<path d="M83.3704 45.8469C84.078 45.8469 84.5632 45.3958 84.7455 44.707H84.786L84.8567 45.7215H85.5342V38.856H84.6849V42.8649C84.6849 44.1306 84.2903 44.9447 83.5827 44.9447C83.0064 44.9447 82.6929 44.4185 82.6929 43.4035V38.856H81.8431V43.4537C81.8431 45.1203 82.4095 45.8469 83.3704 45.8469Z" fill="#27272A"/>
<path d="M88.082 45.8469C88.2943 45.8469 88.5067 45.809 88.709 45.6713L88.6078 44.8696C88.5172 44.9199 88.406 44.9571 88.3149 44.9571C88.082 44.9571 87.9914 44.807 87.9914 44.4185V38.856H87.1316V44.5563C87.1316 45.5714 87.5562 45.8469 88.082 45.8469Z" fill="#27272A"/>
<path d="M89.6697 45.7214H90.519V41.7119C90.519 40.5596 90.9236 39.632 91.6211 39.632C92.1975 39.632 92.511 40.1588 92.511 41.1733V45.7214H93.3602V41.123C93.3602 39.457 92.8039 38.7305 91.8234 38.7305C91.1254 38.7305 90.6401 39.1816 90.4584 39.9454H90.4178L90.2761 38.8558H89.6697V45.7214Z" fill="#27272A"/>
<path d="M94.7561 45.7214H95.6054V44.3681C95.6054 43.5286 95.7972 42.8275 96.7276 42.8275H96.9704V41.9377H96.7276C96.1412 41.9377 95.8583 42.0879 95.6354 42.7394L95.6054 42.727V41.311C95.6054 40.1836 95.9489 39.6196 96.6264 39.6196C97.324 39.6196 97.658 40.1836 97.658 41.311V45.7214H98.5173V41.311C98.5173 39.6451 97.9509 38.7305 96.6364 38.7305C95.322 38.7305 94.7561 39.6451 94.7561 41.311V45.7214Z" fill="#27272A"/>
<path d="M101.136 45.8471C101.349 45.8471 101.561 45.8093 101.763 45.6715L101.662 44.8698C101.571 44.9201 101.46 44.9573 101.369 44.9573C101.136 44.9573 101.045 44.8072 101.045 44.4188V38.8562H101.035V37.8411C101.035 37.0264 100.853 36.5257 100.61 36.275L100.62 36.2248H102.178V35.3853H100.055L99.3971 35.7613V36.2248C99.8623 36.2248 100.186 36.6256 100.186 37.6283V44.5565C100.186 45.5716 100.61 45.8471 101.136 45.8471Z" fill="#27272A"/>
<path d="M104.16 45.8469C104.867 45.8469 105.353 45.3958 105.535 44.707H105.575L105.646 45.7215H106.324V38.856H105.474V42.8649C105.474 44.1306 105.08 44.9447 104.372 44.9447C103.796 44.9447 103.482 44.4185 103.482 43.4035V38.856H102.633V43.4537C102.633 45.1203 103.199 45.8469 104.16 45.8469Z" fill="#27272A"/>
<path d="M109.003 45.8471C109.215 45.8471 109.428 45.8093 109.63 45.6715L109.529 44.8698C109.438 44.9201 109.327 44.9573 109.235 44.9573C109.003 44.9573 108.912 44.8072 108.912 44.4188V38.8562H108.902V37.8411C108.902 37.0264 108.72 36.5257 108.477 36.275L108.487 36.2248H110.045V35.3853H107.921L107.264 35.7613V36.2248C107.729 36.2248 108.053 36.6256 108.053 37.6283V44.5565C108.053 45.5716 108.477 45.8471 109.003 45.8471Z" fill="#27272A"/>
<path d="M111.723 45.8467C111.996 45.8467 112.249 45.7965 112.461 45.6711L112.35 44.8446C112.229 44.9197 112.077 44.957 111.905 44.957C111.42 44.957 111.116 44.6312 111.116 43.8544C111.116 43.0403 111.44 42.614 112.401 42.5141L113.088 42.4391V45.7214H113.937V41.0734C113.937 39.4819 113.31 38.7305 112.188 38.7305C111.501 38.7305 110.934 38.9935 110.631 39.2436V40.2463C111.056 39.8455 111.571 39.6196 112.107 39.6196C112.805 39.6196 113.088 40.0459 113.088 41.1361V41.5369L112.289 41.612C110.864 41.7373 110.267 42.5017 110.267 43.8798C110.267 45.145 110.783 45.8467 111.723 45.8467Z" fill="#27272A"/>
<path d="M117.082 45.8347C118.346 45.8347 118.923 45.1205 118.923 43.3664V38.8562H118.063V43.4415C118.063 44.3809 117.84 44.9449 117.082 44.9449C116.314 44.9449 116.112 44.3437 116.112 43.6171C116.112 42.7652 116.385 42.4264 116.981 42.4264H117.133V41.6372H116.981C116.526 41.6372 116.081 41.4492 116.081 40.56C116.081 40.0208 116.274 39.6578 116.698 39.6578C116.88 39.6578 117.072 39.7329 117.183 39.7956L117.325 38.9561C117.163 38.8307 116.85 38.7681 116.566 38.7681C115.585 38.7681 115.222 39.62 115.222 40.4849C115.222 41.4491 115.626 41.8878 115.97 42.0132V42.0634C115.616 42.1633 115.242 42.5393 115.242 43.7046C115.242 45.0076 115.737 45.8347 117.082 45.8347Z" fill="#27272A"/>
<path d="M115.424 37.7534H118.922V37.2894H118.932V35.874H118.154V36.9009H116.081L115.424 37.2894V37.7534Z" fill="#27272A"/>
<path d="M120.793 45.7215H121.612L122.29 42.0378C122.361 41.537 122.441 41.2485 122.512 40.4847H122.542C122.603 41.2485 122.674 41.6245 122.755 42.0378L123.432 45.7215H124.272L125.05 38.856H124.17L123.887 41.7375C123.837 42.2258 123.806 42.9902 123.746 44.068H123.715C123.574 42.9778 123.442 42.2258 123.351 41.6996L122.836 38.856H122.209L121.693 41.6996C121.602 42.2258 121.471 42.9778 121.329 44.068H121.299C121.238 42.9902 121.208 42.2258 121.167 41.7375L120.874 38.856H120.005L120.793 45.7215Z" fill="#27272A"/>
<path d="M127.447 45.8467C128.761 45.8467 129.206 44.9073 129.206 43.8544C129.206 42.6271 128.62 42.163 127.821 41.7373C127.032 41.311 126.749 41.0355 126.749 40.4715C126.749 40.0205 126.992 39.6196 127.639 39.6196C128.134 39.6196 128.66 39.8331 128.933 40.0335V39.1313C128.68 38.8806 128.185 38.7305 127.639 38.7305C126.466 38.7305 125.89 39.5073 125.89 40.5218C125.89 41.7119 126.435 42.2008 127.416 42.7021C128.053 43.0279 128.347 43.3785 128.347 43.9549C128.347 44.6064 127.983 44.957 127.447 44.957C126.911 44.957 126.395 44.7193 126.061 44.4935L125.818 45.3708C126.233 45.6215 126.82 45.8467 127.447 45.8467Z" fill="#27272A"/>
<path d="M130.905 41.3991H132.098V40.5472H131.006C130.793 40.5472 130.733 40.384 130.733 40.1712C130.733 40.0205 130.753 39.8455 130.783 39.7704L130.106 39.6196C130.025 39.7952 129.964 40.0831 129.964 40.3214C129.964 40.873 130.217 41.3991 130.905 41.3991ZM130.905 44.9073H132.098V44.0548H131.006C130.793 44.0548 130.733 43.8922 130.733 43.6794C130.733 43.5286 130.753 43.3536 130.783 43.2786L130.106 43.1278C130.025 43.3034 129.964 43.5913 129.964 43.8295C129.964 44.3805 130.217 44.9073 130.905 44.9073Z" fill="#27272A"/>
<path d="M133.675 45.7214H134.454C135.92 45.7214 136.456 44.4686 136.456 42.2759C136.456 40.0335 135.879 38.7305 134.393 38.7305C133.756 38.7305 133.2 38.9557 132.876 39.2566V40.2587C133.281 39.82 133.746 39.6196 134.272 39.6196C135.202 39.6196 135.586 40.384 135.586 42.2635C135.586 44.1553 135.232 44.8571 134.565 44.8571H134.474V41.8H133.109V42.6519H133.675V45.7214Z" fill="#27272A"/>
<path d="M139.297 45.8467C140.713 45.8467 141.249 44.5561 141.249 42.3385C141.249 40.1458 140.662 38.7305 139.207 38.7305C138.59 38.7305 138.003 38.9557 137.68 39.2188V40.2215C138.084 39.833 138.58 39.6196 139.085 39.6196C140.035 39.6196 140.379 40.4715 140.379 42.3261C140.379 44.4686 139.955 44.97 139.287 44.97C138.66 44.97 138.357 44.5313 138.357 42.9026V42.6519H139.308V41.8H137.558C137.528 42.1884 137.508 42.5768 137.508 42.915C137.508 44.957 138.094 45.8467 139.297 45.8467Z" fill="#27272A"/>
<path d="M144.737 45.8469C145.698 45.8469 146.244 45.1203 146.244 43.4661V38.856H145.384V43.4035C145.384 44.4185 145.091 44.9447 144.515 44.9447C143.807 44.9447 143.403 44.1306 143.403 42.8649V38.856H142.553V45.7215H143.231L143.302 44.6314H143.342C143.524 45.3958 144.03 45.8469 144.737 45.8469Z" fill="#27272A"/>
<path d="M148.731 45.8469C148.944 45.8469 149.156 45.809 149.358 45.6713L149.257 44.8696C149.166 44.9199 149.055 44.9571 148.964 44.9571C148.731 44.9571 148.64 44.807 148.64 44.4185V38.856H147.781V44.5563C147.781 45.5714 148.205 45.8469 148.731 45.8469Z" fill="#27272A"/>
<path d="M150.258 45.7214H151.108V43.3282C151.108 42.4391 151.411 42.0506 151.816 42.0376L151.876 41.4488L151.057 40.7725C151.057 40.1086 151.421 39.6196 152.038 39.6196C152.635 39.6196 153.079 40.0583 153.079 41.1987V45.7214H153.929V41.0858C153.929 39.4192 153.1 38.7305 152.048 38.7305C150.865 38.7305 150.178 39.6947 150.178 40.7098V41.123L151.057 41.6492L151.047 41.687C150.572 41.875 150.258 42.2635 150.258 43.3158V45.7214Z" fill="#27272A"/>
<path d="M156.527 45.8467C156.8 45.8467 157.053 45.7965 157.266 45.6711L157.154 44.8446C157.033 44.9197 156.881 44.957 156.709 44.957C156.224 44.957 155.921 44.6312 155.921 43.8544C155.921 43.0403 156.244 42.614 157.205 42.5141L157.893 42.4391V45.7214H158.742V41.0734C158.742 39.4819 158.115 38.7305 156.993 38.7305C156.305 38.7305 155.739 38.9935 155.435 39.2436V40.2463C155.86 39.8455 156.376 39.6196 156.912 39.6196C157.609 39.6196 157.893 40.0459 157.893 41.1361V41.5369L157.093 41.612C155.668 41.7373 155.071 42.5017 155.071 43.8798C155.071 45.145 155.587 45.8467 156.527 45.8467Z" fill="#27272A"/>
<path d="M156.366 37.766H158.884V36.9141H157.609C157.71 36.7261 157.771 36.4754 157.771 36.1869C157.771 35.6359 157.508 35.2227 157.063 35.2227C156.892 35.2227 156.578 35.2853 156.355 35.5484L156.517 36.2123C156.598 36.1621 156.709 36.0746 156.82 36.0746C156.972 36.0746 157.053 36.2372 157.053 36.4376C157.053 36.9011 156.659 37.1145 156.366 37.2144V37.766Z" fill="#27272A"/>
<path d="M161.411 45.7214H162.27V40.672C162.27 39.2566 161.704 38.7305 160.855 38.7305C160.299 38.7305 159.884 38.9433 159.661 39.1059V40.0831C159.955 39.7952 160.278 39.6196 160.652 39.6196C161.199 39.6196 161.411 40.008 161.411 40.8351V45.7214Z" fill="#27272A"/>
<path d="M164.759 45.8469C164.971 45.8469 165.183 45.809 165.385 45.6713L165.284 44.8696C165.193 44.9199 165.082 44.9571 164.991 44.9571C164.759 44.9571 164.667 44.807 164.667 44.4185V38.856H163.808V44.5563C163.808 45.5714 164.233 45.8469 164.759 45.8469Z" fill="#27272A"/>
<path d="M166.609 45.7214H167.387C168.854 45.7214 169.389 44.4686 169.389 42.2759C169.389 40.0335 168.813 38.7305 167.326 38.7305C166.689 38.7305 166.133 38.9557 165.81 39.2566V40.2587C166.214 39.82 166.679 39.6196 167.205 39.6196C168.135 39.6196 168.52 40.384 168.52 42.2635C168.52 44.1553 168.165 44.8571 167.498 44.8571H167.407V41.8H166.042V42.6519H166.609V45.7214Z" fill="#27272A"/>
<path d="M166.902 37.766H169.42V36.9141H168.146C168.247 36.7261 168.307 36.4754 168.307 36.1869C168.307 35.6359 168.044 35.2227 167.6 35.2227C167.428 35.2227 167.114 35.2853 166.892 35.5484L167.053 36.2123C167.135 36.1621 167.246 36.0746 167.357 36.0746C167.509 36.0746 167.59 36.2372 167.59 36.4376C167.59 36.9011 167.195 37.1145 166.902 37.2144V37.766Z" fill="#27272A"/>
<path d="M171.887 45.7214H172.747V40.672C172.747 39.2566 172.18 38.7305 171.331 38.7305C170.775 38.7305 170.36 38.9433 170.138 39.1059V40.0831C170.431 39.7952 170.754 39.6196 171.129 39.6196C171.674 39.6196 171.887 40.008 171.887 40.8351V45.7214Z" fill="#27272A"/>
<path d="M174.141 45.7214H174.991V44.3681C174.991 43.5286 175.183 42.8275 176.113 42.8275H176.356V41.9377H176.113C175.527 41.9377 175.244 42.0879 175.021 42.7394L174.991 42.727V41.311C174.991 40.1836 175.335 39.6196 176.012 39.6196C176.71 39.6196 177.044 40.1836 177.044 41.311V45.7214H177.903V41.311C177.903 39.6451 177.337 38.7305 176.022 38.7305C174.708 38.7305 174.141 39.6451 174.141 41.311V45.7214Z" fill="#27272A"/>
<path d="M177.155 48.9917H177.903V47.2879C177.903 46.8119 177.721 46.5234 177.307 46.5234C177.145 46.5234 176.912 46.5489 176.75 46.6364L176.811 47.3884C176.861 47.3629 176.912 47.3381 176.983 47.3381C177.094 47.3381 177.155 47.4386 177.155 47.6514V48.9917Z" fill="#27272A"/>
<path d="M180.259 45.8467C180.461 45.8467 180.684 45.8089 180.886 45.6711L180.775 44.8695C180.694 44.9197 180.582 44.957 180.481 44.957C180.249 44.957 180.148 44.8068 180.148 44.4184V43.3034C180.148 42.4012 180.441 42.0376 180.835 42.0376L180.906 41.4488L180.057 40.7725C180.067 40.0205 180.441 39.6196 180.967 39.6196C181.472 39.6196 181.917 39.9708 181.917 41.1857V43.5665C181.917 45.22 182.453 45.8467 183.293 45.8467C183.879 45.8467 184.385 45.3956 184.566 44.6312H184.617L184.678 45.7214H185.355V38.8558H184.506V42.8901C184.506 44.1305 184.111 44.9445 183.515 44.9445C183.07 44.9445 182.767 44.5189 182.767 43.5038V41.0734C182.767 39.3441 181.948 38.7305 180.977 38.7305C179.864 38.7305 179.177 39.6072 179.177 40.7098V41.123L180.087 41.6492L180.077 41.687C179.612 41.875 179.299 42.2635 179.299 43.3034V44.5561C179.299 45.5712 179.733 45.8467 180.259 45.8467Z" fill="#27272A"/>
<path d="M186.852 45.7214H187.701V41.7119C187.701 40.5596 188.105 39.632 188.803 39.632C189.38 39.632 189.693 40.1588 189.693 41.1733V45.7214H190.543V41.123C190.543 39.457 189.986 38.7305 189.006 38.7305C188.308 38.7305 187.823 39.1816 187.641 39.9454H187.6L187.458 38.8558H186.852V45.7214Z" fill="#27272A"/>
<path d="M192.009 45.7215H192.858V43.1031L193.748 41.725C194.435 41.8001 194.729 42.389 194.729 43.2911V45.7215H195.588V43.2911C195.588 41.8876 195.123 41.0357 194.254 40.9358L195.558 38.8932V38.856H194.587L192.878 41.8504H192.858V38.856H192.009V45.7215Z" fill="#27272A"/>
<path d="M198.167 45.7214H199.027V40.672C199.027 39.2566 198.46 38.7305 197.611 38.7305C197.055 38.7305 196.64 38.9433 196.418 39.1059V40.0831C196.711 39.7952 197.035 39.6196 197.409 39.6196C197.954 39.6196 198.167 40.008 198.167 40.8351V45.7214Z" fill="#27272A"/>
<path d="M201.736 45.8467C203.051 45.8467 203.496 44.9073 203.496 43.8544C203.496 42.6271 202.909 42.163 202.11 41.7373C201.321 41.311 201.039 41.0355 201.039 40.4715C201.039 40.0205 201.281 39.6196 201.928 39.6196C202.424 39.6196 202.949 39.8331 203.223 40.0335V39.1313C202.97 38.8806 202.474 38.7305 201.928 38.7305C200.756 38.7305 200.179 39.5073 200.179 40.5218C200.179 41.7119 200.725 42.2008 201.706 42.7021C202.343 43.0279 202.636 43.3785 202.636 43.9549C202.636 44.6064 202.272 44.957 201.736 44.957C201.2 44.957 200.685 44.7193 200.351 44.4935L200.108 45.3708C200.523 45.6215 201.109 45.8467 201.736 45.8467Z" fill="#27272A"/>
<path d="M205.771 45.8467C206.044 45.8467 206.296 45.7965 206.509 45.6711L206.398 44.8446C206.276 44.9197 206.125 44.957 205.953 44.957C205.467 44.957 205.164 44.6312 205.164 43.8544C205.164 43.0403 205.488 42.614 206.448 42.5141L207.136 42.4391V45.7214H207.985V41.0734C207.985 39.4819 207.358 38.7305 206.236 38.7305C205.548 38.7305 204.982 38.9935 204.678 39.2436V40.2463C205.103 39.8455 205.619 39.6196 206.155 39.6196C206.853 39.6196 207.136 40.0459 207.136 41.1361V41.5369L206.337 41.612C204.911 41.7373 204.314 42.5017 204.314 43.8798C204.314 45.145 204.83 45.8467 205.771 45.8467Z" fill="#27272A"/>
<path d="M210.654 45.7214H211.514V40.672C211.514 39.2566 210.948 38.7305 210.098 38.7305C209.542 38.7305 209.127 38.9433 208.905 39.1059V40.0831C209.198 39.7952 209.522 39.6196 209.896 39.6196C210.442 39.6196 210.654 40.008 210.654 40.8351V45.7214Z" fill="#27272A"/>
<path d="M214.436 45.8467C214.638 45.8467 214.901 45.8089 215.063 45.6841L214.972 44.857C214.861 44.9197 214.73 44.957 214.578 44.957C213.819 44.957 213.597 43.8171 213.597 42.351C213.597 40.0961 214.093 39.6196 214.79 39.6196C215.528 39.6196 215.801 40.196 215.801 41.236V45.7214H216.661V41.1361C216.661 39.6575 216.105 38.7305 214.78 38.7305C213.567 38.7305 212.738 39.5197 212.738 42.3385C212.738 44.2682 213.142 45.8467 214.436 45.8467Z" fill="#27272A"/>
<path d="M218.026 45.7214H218.875V43.3282C218.875 42.4391 219.179 42.0506 219.583 42.0376L219.643 41.4488L218.825 40.7725C218.825 40.1086 219.189 39.6196 219.806 39.6196C220.402 39.6196 220.847 40.0583 220.847 41.1987V45.7214H221.696V41.0858C221.696 39.4192 220.867 38.7305 219.816 38.7305C218.632 38.7305 217.945 39.6947 217.945 40.7098V41.123L218.825 41.6492L218.815 41.687C218.339 41.875 218.026 42.2635 218.026 43.3158V45.7214Z" fill="#27272A"/>
<path d="M224.406 45.8467C225.721 45.8467 226.166 44.9073 226.166 43.8544C226.166 42.6271 225.579 42.163 224.78 41.7373C223.992 41.311 223.709 41.0355 223.709 40.4715C223.709 40.0205 223.951 39.6196 224.598 39.6196C225.094 39.6196 225.619 39.8331 225.893 40.0335V39.1313C225.64 38.8806 225.144 38.7305 224.598 38.7305C223.426 38.7305 222.849 39.5073 222.849 40.5218C222.849 41.7119 223.395 42.2008 224.376 42.7021C225.013 43.0279 225.306 43.3785 225.306 43.9549C225.306 44.6064 224.942 44.957 224.406 44.957C223.87 44.957 223.355 44.7193 223.021 44.4935L222.778 45.3708C223.193 45.6215 223.779 45.8467 224.406 45.8467Z" fill="#27272A"/>
<path d="M231.99 45.8469C233.284 45.8469 233.82 44.9323 233.82 43.2657V38.856H232.97V43.2657C232.97 44.3937 232.657 44.9571 231.99 44.9571C231.312 44.9571 230.999 44.3937 230.999 43.2657V38.856H230.15V43.2657C230.15 44.9323 230.685 45.8469 231.99 45.8469Z" fill="#27272A"/>
<path d="M232.758 37.7531H234.821V36.9261H232.87C232.668 36.9261 232.587 36.7381 232.587 36.5252C232.587 36.3875 232.607 36.2119 232.627 36.1368L231.96 35.9736C231.868 36.1616 231.818 36.4874 231.818 36.7256C231.818 37.2642 232.061 37.7531 232.758 37.7531Z" fill="#27272A"/>
<path d="M235.943 45.7212H236.408C237.136 45.7212 237.571 45.4203 237.885 44.932C238.269 44.3307 238.562 43.2908 238.562 41.9878C238.562 40.9727 238.39 40.0705 238.016 39.5071C237.723 39.043 237.288 38.793 236.752 38.793C236.59 38.793 236.378 38.8178 236.155 38.9177L236.338 39.7702C236.428 39.72 236.55 39.6821 236.681 39.6821C237.318 39.6821 237.713 40.5471 237.713 41.95C237.713 42.7895 237.571 43.7041 237.288 44.2681C237.126 44.5814 236.904 44.7942 236.661 44.7942H236.58L235.448 38.8556H234.588L235.943 45.7212Z" fill="#27272A"/>
</svg>
