<svg width="130" height="57" viewBox="0 0 130 57" fill="none" xmlns="http://www.w3.org/2000/svg">
<g clip-path="url(#clip0_170_1890)">
<path d="M18.1795 44.9497C16.2364 45.2909 14.2591 45.3932 12.2137 45.6657L5.97494 27.3931V46.4499C4.03183 46.6544 2.25915 46.9271 0.418213 47.1999V12.2908H5.60017L12.6909 32.0979V12.2908H18.1795V44.9497ZM28.9182 25.0749C31.032 25.0749 34.2706 24.9726 36.2137 24.9726V30.427C33.7932 30.427 30.9638 30.427 28.9182 30.5293V38.6431C32.1229 38.4386 35.3274 38.1656 38.5659 38.0633V43.313L23.4635 44.5065V12.2908H38.5659V17.7453H28.9182V25.0749V25.0749ZM58.85 17.7455H53.1909V42.8363C51.35 42.8363 49.5091 42.8363 47.7366 42.9043V17.7455H42.0776V12.2908H58.8502L58.85 17.7455V17.7455ZM67.7135 24.7H75.1796V30.1544H67.7135V42.5295H62.3609V12.2908H77.6V17.7453H67.7135V24.7V24.7ZM86.4636 37.7567C89.5659 37.8247 92.7021 38.0637 95.7363 38.2339V43.6203C90.8614 43.3133 85.9864 43.0069 81.0091 42.9043V12.2908H86.4636V37.7567ZM100.339 43.9953C102.077 44.0978 103.918 44.2001 105.691 44.4043V12.2908H100.339V43.9953V43.9953ZM129.589 12.2908L122.668 28.8931L129.589 47.1999C127.543 46.9271 125.498 46.5521 123.452 46.2112L119.532 36.1205L115.544 45.3932C113.566 45.052 111.657 44.9497 109.68 44.677L116.703 28.6884L110.361 12.2908H116.225L119.804 21.4612L123.623 12.2908H129.589V12.2908Z" fill="#D81F26"/>
</g>
<defs>
<clipPath id="clip0_170_1890">
<rect width="129.164" height="55.8545" fill="white" transform="translate(0.418213 0.654297)"/>
</clipPath>
</defs>
</svg>
