<svg width="181" height="73" viewBox="0 0 181 73" fill="none" xmlns="http://www.w3.org/2000/svg">
<g filter="url(#filter0_d_170_1872)">
<g clip-path="url(#clip0_170_1872)">
<path d="M27.8855 6.63892C14.2491 6.63892 3.19409 17.6936 3.19409 31.33C3.19409 44.9669 14.2491 56.0207 27.8855 56.0207C41.5233 56.0207 52.5771 44.9669 52.5771 31.33C52.5771 17.6945 41.5233 6.6401 27.8852 6.6401L27.8855 6.63892V6.63892ZM39.2088 42.2505C38.7665 42.9758 37.8171 43.2058 37.0918 42.7606C31.2945 39.2195 23.9964 38.4175 15.4016 40.3812C14.5734 40.5699 13.7478 40.0509 13.5591 39.2224C13.3696 38.3939 13.8864 37.5683 14.7167 37.3796C24.1223 35.2308 32.1902 36.156 38.6987 40.1335C39.424 40.5787 39.654 41.5252 39.2088 42.2505V42.2505ZM42.2309 35.5274C41.6737 36.4332 40.4884 36.7192 39.5832 36.1619C32.9462 32.0824 22.8291 30.901 14.9788 33.2839C13.9607 33.5914 12.8854 33.0177 12.5764 32.0013C12.2698 30.9832 12.8438 29.91 13.8602 29.6004C22.8274 26.8796 33.9752 28.1975 41.597 32.8812C42.5022 33.4384 42.7882 34.6237 42.2309 35.5277V35.5274ZM42.4904 28.5266C34.5325 23.7999 21.403 23.3653 13.805 25.6713C12.585 26.0413 11.2947 25.3525 10.925 24.1325C10.5552 22.9118 11.2434 21.6224 12.4644 21.2515C21.1862 18.6038 35.6853 19.1154 44.8474 24.5544C45.9472 25.2057 46.3069 26.623 45.6553 27.719C45.0066 28.8164 43.5855 29.1782 42.4916 28.5266H42.4904ZM70.3711 29.4323C66.1076 28.4157 65.3499 27.7022 65.3499 26.2029C65.3499 24.7864 66.6826 23.8332 68.6669 23.8332C70.5893 23.8332 72.494 24.557 74.4931 26.0472C74.552 26.0923 74.6287 26.1103 74.7024 26.0985C74.7791 26.0873 74.8439 26.0463 74.8882 25.9847L76.9698 23.0504C77.0553 22.9295 77.0317 22.7629 76.9167 22.6706C74.5373 20.7621 71.8601 19.8342 68.7288 19.8342C64.1263 19.8342 60.9095 22.5966 60.9095 26.549C60.9095 30.7875 63.684 32.2882 68.4782 33.4467C72.5559 34.3864 73.2459 35.1736 73.2459 36.5806C73.2459 38.1403 71.8542 39.1104 69.6134 39.1104C67.1249 39.1104 65.0934 38.2701 62.823 36.3064C62.767 36.2563 62.6904 36.2356 62.6196 36.2386C62.5429 36.2445 62.4751 36.2799 62.4279 36.3359L60.0928 39.1133C59.9955 39.2313 60.0072 39.4023 60.1193 39.5025C62.7611 41.8613 66.0103 43.1056 69.519 43.1056C74.4783 43.1056 77.6833 40.3959 77.6833 36.2003C77.6922 32.66 75.5722 30.6993 70.38 29.4362L70.3711 29.4323V29.4323ZM88.9052 25.2278C86.7558 25.2278 84.9926 26.0746 83.536 27.8098V25.8567C83.536 25.7025 83.4122 25.5769 83.2589 25.5769H79.4406C79.2873 25.5769 79.1635 25.7025 79.1635 25.8567V47.5578C79.1635 47.7111 79.2873 47.8379 79.4406 47.8379H83.2589C83.4122 47.8379 83.536 47.7111 83.536 47.5578V40.7085C84.9926 42.339 86.7558 43.138 88.9052 43.138C92.9004 43.138 96.9457 40.0627 96.9457 34.1838C96.9516 28.3037 92.9063 25.2275 88.9081 25.2275L88.9052 25.2278ZM92.5053 34.1838C92.5053 37.1762 90.6625 39.2667 88.0207 39.2667C85.4113 39.2667 83.4417 37.0818 83.4417 34.1838C83.4417 31.2854 85.4113 29.1012 88.0207 29.1012C90.6183 29.1009 92.5053 31.238 92.5053 34.1835V34.1838ZM107.31 25.2278C102.164 25.2278 98.1339 29.1894 98.1339 34.2478C98.1339 39.2519 102.138 43.1704 107.248 43.1704C112.41 43.1704 116.453 39.2224 116.453 34.1838C116.453 29.1623 112.437 25.2284 107.31 25.2284V25.2278V25.2278ZM107.31 39.2961C104.573 39.2961 102.509 37.0966 102.509 34.1823C102.509 31.2548 104.503 29.1304 107.248 29.1304C110.001 29.1304 112.077 31.3291 112.077 34.2463C112.077 37.1732 110.072 39.2961 107.31 39.2961V39.2961ZM127.439 25.5769H123.237V21.2822C123.237 21.1283 123.113 21.0027 122.96 21.0027H119.142C118.988 21.0027 118.862 21.1283 118.862 21.2822V25.5769H117.028C116.874 25.5769 116.751 25.7025 116.751 25.8567V29.1375C116.751 29.2914 116.874 29.4173 117.028 29.4173H118.862V37.9074C118.862 41.3365 120.569 43.0761 123.939 43.0761C125.307 43.0761 126.442 42.793 127.512 42.1856C127.601 42.1385 127.654 42.0441 127.654 41.9439V38.8185C127.654 38.7241 127.604 38.6327 127.521 38.5826C127.439 38.5295 127.336 38.5266 127.25 38.5708C126.516 38.9394 125.805 39.1104 125.009 39.1104C123.786 39.1104 123.237 38.5531 123.237 37.3089V29.4188H127.439C127.592 29.4188 127.716 29.2932 127.716 29.139V25.8585C127.722 25.7043 127.598 25.5787 127.442 25.5787L127.439 25.5769V25.5769ZM142.075 25.5937V25.0662C142.075 23.5145 142.671 22.8225 144.003 22.8225C144.799 22.8225 145.439 22.9805 146.156 23.2193C146.244 23.247 146.335 23.2332 146.406 23.1804C146.48 23.1276 146.521 23.043 146.521 22.9534V19.7366C146.521 19.6136 146.445 19.5048 146.324 19.4686C145.569 19.2436 144.602 19.0127 143.151 19.0127C139.628 19.0127 137.761 20.9982 137.761 24.7525V25.5604H135.927C135.774 25.5604 135.647 25.686 135.647 25.8399V29.1375C135.647 29.2914 135.774 29.4173 135.927 29.4173H137.761V42.51C137.761 42.6662 137.888 42.7901 138.041 42.7901H141.857C142.013 42.7901 142.137 42.6662 142.137 42.51V29.4182H145.702L151.162 42.51C150.543 43.884 149.933 44.1582 149.101 44.1582C148.429 44.1582 147.718 43.9577 146.996 43.5596C146.928 43.5242 146.846 43.5183 146.775 43.539C146.701 43.5655 146.639 43.6186 146.61 43.6894L145.315 46.5287C145.253 46.6644 145.306 46.8206 145.436 46.8914C146.787 47.6226 148.004 47.9352 149.511 47.9352C152.33 47.9352 153.889 46.6201 155.26 43.0879L161.883 25.9759C161.918 25.8898 161.906 25.7925 161.853 25.7161C161.803 25.6403 161.718 25.5946 161.626 25.5946H157.652C157.531 25.5946 157.425 25.6704 157.386 25.7821L153.314 37.4091L148.856 25.7745C148.815 25.6663 148.712 25.5946 148.597 25.5946H142.075V25.5937V25.5937ZM133.589 25.5769H129.771C129.618 25.5769 129.491 25.7025 129.491 25.8567V42.51C129.491 42.6662 129.618 42.7901 129.771 42.7901H133.589C133.743 42.7901 133.869 42.6662 133.869 42.51V25.8579C133.869 25.7037 133.746 25.5781 133.589 25.5781V25.5769ZM131.702 17.9938C130.19 17.9938 128.963 19.218 128.963 20.7302C128.963 22.2434 130.19 23.4691 131.702 23.4691C133.215 23.4691 134.438 22.2434 134.438 20.7302C134.438 19.2183 133.212 17.9938 131.702 17.9938ZM165.144 30.9316C163.634 30.9316 162.458 29.7183 162.458 28.245C162.458 26.7716 163.649 25.5445 165.158 25.5445C166.668 25.5445 167.845 26.7575 167.845 28.2297C167.845 29.703 166.653 30.9316 165.144 30.9316ZM165.158 25.8116C163.782 25.8116 162.741 26.9055 162.741 28.245C162.741 29.5839 163.776 30.663 165.144 30.663C166.521 30.663 167.561 29.57 167.561 28.2297C167.561 26.8908 166.527 25.8116 165.158 25.8116V25.8116ZM165.754 28.5059L166.515 29.5697H165.872L165.188 28.5938H164.601V29.5697H164.065V26.7498H165.321C165.978 26.7498 166.409 27.0851 166.409 27.6494C166.412 28.1117 166.143 28.3942 165.757 28.5059H165.754ZM165.3 27.2337H164.601V28.1256H165.3C165.648 28.1256 165.857 27.9549 165.857 27.6792C165.857 27.3891 165.648 27.2337 165.3 27.2337V27.2337Z" fill="#1ED760"/>
</g>
</g>
<defs>
<filter id="filter0_d_170_1872" x="0.109131" y="0.0185547" width="180.606" height="72.4363" filterUnits="userSpaceOnUse" color-interpolation-filters="sRGB">
<feFlood flood-opacity="0" result="BackgroundImageFix"/>
<feColorMatrix in="SourceAlpha" type="matrix" values="0 0 0 0 0 0 0 0 0 0 0 0 0 0 0 0 0 0 127 0" result="hardAlpha"/>
<feOffset dx="5" dy="5"/>
<feGaussianBlur stdDeviation="4"/>
<feComposite in2="hardAlpha" operator="out"/>
<feColorMatrix type="matrix" values="0 0 0 0 0 0 0 0 0 0 0 0 0 0 0 0 0 0 0.25 0"/>
<feBlend mode="normal" in2="BackgroundImageFix" result="effect1_dropShadow_170_1872"/>
<feBlend mode="normal" in="SourceGraphic" in2="effect1_dropShadow_170_1872" result="shape"/>
</filter>
<clipPath id="clip0_170_1872">
<rect width="164.606" height="56.4364" fill="white" transform="translate(3.10913 3.01855)"/>
</clipPath>
</defs>
</svg>
