<svg width="125" height="57" viewBox="0 0 125 57" fill="none" xmlns="http://www.w3.org/2000/svg">
<g clip-path="url(#clip0_170_1869)">
<path d="M8.29508 24.0535C13.8455 22.1404 14.7903 17.1569 14.0817 12.5748C14.0817 12.4095 14.2234 12.2914 14.3651 12.3386C19.6794 14.9367 25.6549 20.6052 25.6549 29.108C25.6549 35.6268 20.6005 41.3897 13.255 41.3897C10.634 41.5089 8.04784 40.7518 5.90484 39.238C3.76184 37.7241 2.18401 35.5397 1.42039 33.0295C0.656774 30.5193 0.75085 27.8263 1.68777 25.3755C2.6247 22.9247 4.35111 20.8557 6.59453 19.4951C6.73624 19.4006 6.92519 19.4951 6.92519 19.6604C6.99605 20.5343 7.23224 22.7309 8.20061 24.0535H8.29508V24.0535Z" fill="url(#paint0_radial_170_1869)"/>
<path d="M41.2911 36.2171L41.6926 35.7448L42.9444 39.7127L42.7791 39.878C41.8343 40.7519 40.4172 41.2007 38.5985 41.2007H38.5277C36.8744 41.2007 35.5753 40.7283 34.6778 39.8544C33.7803 38.9569 33.3079 37.6106 33.3079 35.9101V25.0927H30.1194V20.7232H33.3079V15.4562H38.2206V20.7232H42.1177V25.0927H38.197V34.8472C38.197 35.296 38.3151 36.7367 39.685 36.7367C40.3936 36.7367 41.0549 36.4769 41.2911 36.1935V36.2171ZM43.8891 40.7519V20.7468H48.8018V40.7519H43.8891V40.7519ZM46.3219 12.5747C46.9048 12.5747 47.4746 12.7473 47.9596 13.0707C48.4446 13.3941 48.823 13.8538 49.0472 14.3919C49.2713 14.93 49.3311 15.5224 49.2191 16.0944C49.1071 16.6664 48.8282 17.1925 48.4177 17.6064C48.0072 18.0202 47.4833 18.3032 46.9122 18.4198C46.3411 18.5363 45.7482 18.4812 45.2083 18.2614C44.6685 18.0416 44.2058 17.6668 43.8785 17.1844C43.5513 16.702 43.3742 16.1336 43.3695 15.5507C43.3695 13.9446 44.7158 12.5747 46.3219 12.5747ZM62.0048 20.2508C66.2561 20.2508 68.5944 22.5655 68.5944 26.7932V40.7283H63.6817V27.9742C63.5872 25.7068 62.5007 24.6675 60.1861 24.6675C58.1077 24.6675 56.4307 25.943 55.5804 27.0294V40.7283H50.6677V20.7704H55.5804V22.8961C56.9976 21.5262 59.265 20.2981 62.0048 20.2981V20.2508ZM84.9386 22.8253V13.425H89.8513V40.7756H84.9386V38.6971C84.1869 39.49 83.2825 40.1226 82.28 40.5569C81.2774 40.9912 80.1973 41.2182 79.1048 41.2243C73.7433 41.2243 70.1532 37.0202 70.1532 30.7612C70.1532 24.4786 73.7433 20.2744 79.1048 20.2744C80.1997 20.2794 81.2821 20.5083 82.2853 20.947C83.2885 21.3856 84.1915 22.0248 84.9386 22.8253ZM84.9386 27.053C84.3911 26.34 83.6915 25.7579 82.8907 25.3494C82.0898 24.9408 81.208 24.7159 80.3093 24.6912C77.2625 24.6912 75.2313 27.1239 75.2313 30.7612C75.2313 34.3749 77.2625 36.8076 80.3093 36.8076C82.0807 36.8076 84.0175 35.8629 84.9386 34.493V27.053ZM101.33 20.2744C107.14 20.2744 111.179 24.762 111.179 31.1391V32.4854H96.3229C96.8189 35.296 99.039 37.091 102.062 37.091C103.975 37.091 106.077 36.2644 107.282 35.0598L107.613 34.7764L109.951 38.1303L109.715 38.3428C107.502 40.3051 104.616 41.3374 101.661 41.2243C95.5198 41.2243 91.1976 36.9021 91.1976 30.7376C91.1498 29.3766 91.3776 28.0199 91.8672 26.7491C92.3567 25.4783 93.098 24.3195 94.0465 23.3423C94.9951 22.3651 96.1313 21.5897 97.3869 21.0625C98.6426 20.5353 99.9918 20.2672 101.354 20.2744H101.33ZM96.2992 28.7772H106.384C106.101 25.7776 103.621 24.4077 101.33 24.4077C97.8817 24.4077 96.5827 27.0058 96.2992 28.8008V28.7772ZM123.059 20.2744H123.414V25.2344L122.988 25.1635C122.634 25.0927 122.185 25.0454 121.737 25.0454C120.154 25.0454 117.958 26.1555 117.131 27.3365V40.7283H112.218V20.7468H117.155V22.967C118.784 21.2664 120.934 20.2744 123.059 20.2744V20.2744Z" fill="#424242"/>
</g>
<defs>
<radialGradient id="paint0_radial_170_1869" cx="0" cy="0" r="1" gradientUnits="userSpaceOnUse" gradientTransform="translate(13.282 41.4019) scale(24.7457 29.0738)">
<stop stop-color="#FF7854"/>
<stop offset="1" stop-color="#FD267D"/>
</radialGradient>
<clipPath id="clip0_170_1869">
<rect width="123.345" height="55.8545" fill="white" transform="translate(0.90918 0.654785)"/>
</clipPath>
</defs>
</svg>
