<svg width="155" height="57" viewBox="0 0 155 57" fill="none" xmlns="http://www.w3.org/2000/svg">
<g clip-path="url(#clip0_170_1896)">
<path d="M26.26 45.1682L16.2486 44.9851C13.0071 44.9213 9.75759 45.0488 6.57977 44.3877C1.74534 43.4001 1.40287 38.5577 1.04447 34.4959C0.550672 28.7853 0.741819 22.9713 1.67366 17.3085C2.19932 14.1307 4.27008 12.2352 7.47179 12.0281C18.2796 11.2794 29.159 11.367 39.9429 11.7175C41.0818 11.7493 42.2287 11.9245 43.3517 12.1237C48.895 13.0953 49.0304 18.5828 49.3888 23.2022C49.7472 27.8694 49.5959 32.5605 48.9109 37.1958C48.3614 41.0347 47.3101 44.2523 42.8738 44.5629C37.3146 44.9691 31.8829 45.2957 26.3078 45.1921C26.3078 45.1682 26.2759 45.1682 26.26 45.1682V45.1682ZM20.3742 35.4516C24.5635 33.0463 28.6732 30.6809 32.8386 28.2915C28.6413 25.8863 24.5396 23.5208 20.3742 21.1315V35.4516Z" fill="#FF0000"/>
<path d="M129.95 40.8033C129.758 41.5838 129.591 42.1971 129.424 42.8502H125.505V12.625H130.077V23.7753C130.316 23.4726 130.435 23.3452 130.539 23.2098C131.319 22.1346 132.331 21.4337 133.637 21.1629C135.716 20.7567 137.492 21.6726 138.121 23.6717C138.527 24.9142 138.79 26.2442 138.822 27.5424C138.886 30.8796 138.838 34.2087 138.718 37.5458C138.671 38.5653 138.36 39.6086 137.97 40.5643C136.687 43.7183 132.498 44.1961 130.419 41.4643C130.292 41.2971 130.173 41.1139 129.95 40.8033ZM130.173 38.0157C130.173 38.9157 130.65 39.4653 131.55 39.6723C132.434 39.8794 133.151 39.5369 133.51 38.7166C133.661 38.3741 133.812 38.0157 133.82 37.6573C133.908 34.2804 133.987 30.9035 134.011 27.5186C134.011 26.8894 133.86 26.2363 133.669 25.623C133.311 24.5159 132.323 24.1894 131.351 24.8345C130.619 25.3283 130.173 26.0292 130.173 26.961V38.0157ZM117.748 21.593H122.535V42.8661H118.799C118.664 42.0617 118.528 41.2334 118.369 40.2617C118.114 40.636 117.963 40.875 117.804 41.1139C116.561 42.9059 114.801 43.5192 112.722 43.1926C110.946 42.9059 109.879 41.536 109.64 39.29C109.568 38.621 109.537 37.944 109.537 37.275C109.521 32.2972 109.537 27.3035 109.537 22.3257V21.5771H114.379V22.4452C114.379 27.2557 114.363 32.0583 114.395 36.8688C114.395 37.5538 114.467 38.2626 114.586 38.9476C114.721 39.6484 115.231 39.9033 115.916 39.8555C117.023 39.7679 117.788 38.9476 117.788 37.8485V22.5328C117.748 22.2222 117.748 21.9355 117.748 21.593ZM84.791 21.5771H89.6015V22.477C89.6015 27.2637 89.5856 32.0424 89.6174 36.8131C89.6174 37.498 89.6811 38.2069 89.8245 38.8759C90.0077 39.6644 90.4696 39.9192 91.2581 39.8157C92.3492 39.6644 93.0103 38.9077 93.0183 37.8007V21.6089H97.8049V42.8661H94.0855C93.9501 42.0776 93.8147 41.2652 93.6395 40.2378C93.4005 40.5962 93.2652 40.8033 93.1298 41.0183C91.8873 42.8422 90.1431 43.5112 88.0166 43.1847C86.3122 42.9298 85.2688 41.6714 84.9502 39.6086C84.8626 38.9635 84.7989 38.3263 84.7989 37.6812C84.783 32.5123 84.783 27.3194 84.783 22.1505L84.791 21.5771ZM82.322 32.9344C82.306 33.6512 82.2583 34.368 82.2184 35.0848C82.0352 37.2352 81.9476 40.2856 80.2114 41.8546C79.1043 42.8422 77.7026 43.2006 76.253 43.2484C75.6079 43.2643 74.9548 43.2643 74.3097 43.1767C71.2593 42.7148 69.8416 41.3688 69.3319 38.0157C68.7505 34.145 68.7027 30.2105 69.3956 26.3398C70.1124 22.3337 72.5814 20.916 76.4203 21.1788C80.0043 21.4337 81.6052 23.7832 82.0273 27.1283C82.2583 29.0477 82.3698 30.9911 82.322 32.9344ZM77.4477 32.2017C77.4477 30.8397 77.4796 29.4698 77.4318 28.1079C77.3999 27.3194 77.2964 26.523 77.1291 25.7425C76.938 24.8425 76.3645 24.4124 75.6477 24.4283C74.9469 24.4443 74.4531 24.8744 74.1982 25.7106C74.1106 26.0212 74.015 26.3398 74.015 26.6504C74.015 28.7849 73.9991 30.9273 73.9832 33.0618C73.9672 35.0529 73.7124 37.1396 74.3416 39.0431C74.5327 39.6245 75.0265 39.9431 75.6716 39.9431C76.3008 39.9431 76.715 39.6325 76.946 39.075C77.1291 38.6449 77.2884 38.175 77.2884 37.7131C77.3442 35.8812 77.4477 34.0415 77.4477 32.2017ZM62.3073 28.1955C62.7294 26.1327 63.1276 24.1177 63.5656 22.0948C64.1152 19.5222 64.7285 16.9497 65.27 14.3692C65.4054 13.74 65.6603 13.5887 66.2576 13.6046C67.5399 13.6524 68.8461 13.6206 70.216 13.6206C69.77 15.2612 69.3319 16.8223 68.9018 18.3594C67.5399 23.1859 66.178 28.0283 64.832 32.8707C64.7285 33.245 64.6807 33.6512 64.6807 34.0494C64.6647 36.6936 64.6807 39.3299 64.6807 41.9741V42.8342H60.0055C59.9896 42.5953 59.9577 42.3564 59.9577 42.1174C59.9577 40.6201 59.8383 39.1148 59.9737 37.6334C60.3161 34.0733 59.1852 30.7999 58.2693 27.4867C57.0587 23.1062 55.8321 18.7099 54.6215 14.3294C54.5578 14.1223 54.5339 13.8993 54.4702 13.6445H59.2409C60.2445 18.4789 61.2559 23.3133 62.3073 28.1955ZM153.779 33.7468H145.719C145.807 35.3636 145.839 36.9007 146.006 38.4219C146.125 39.4812 146.707 39.9352 147.623 39.9431C148.578 39.959 149.136 39.4812 149.359 38.4299C149.431 38.0874 149.478 37.7449 149.51 37.3945C149.542 37.0839 149.558 36.7494 149.582 36.3034C150.944 36.375 152.274 36.4547 153.588 36.5104C154.353 38.7803 152.975 41.6953 150.657 42.5953C148.833 43.3121 146.962 43.3121 145.098 42.7625C143.72 42.3564 142.693 41.4803 142.231 40.1343C141.801 38.8759 141.394 37.5617 141.307 36.2476C141.068 33.0061 140.98 29.7327 141.474 26.4832C141.562 25.9416 141.713 25.4239 141.88 24.8982C142.549 22.7319 144.007 21.4018 146.261 21.1788C147.487 21.0594 148.754 21.1072 149.964 21.3142C151.923 21.6567 152.967 23.0664 153.421 24.9142C153.628 25.7823 153.779 26.6743 153.811 27.5584C153.819 29.5893 153.779 31.6043 153.779 33.7468ZM149.2 30.9512C149.2 29.3504 149.216 27.8451 149.184 26.3318C149.184 25.9734 149.048 25.5991 148.913 25.2566C148.642 24.5876 148.077 24.4044 147.4 24.4044C146.723 24.4044 146.293 24.7469 146.125 25.3602C145.616 27.2 145.783 29.0796 145.799 30.9672C147.017 30.9512 148.124 30.9512 149.2 30.9512Z" fill="#282828"/>
<path d="M101.5 17.5231H96.7614V13.6842H110.906V17.4992H106.199V42.8342H101.508L101.5 17.5231Z" fill="#282828"/>
</g>
<defs>
<clipPath id="clip0_170_1896">
<rect width="153.6" height="55.8545" fill="white" transform="translate(0.781738 0.981934)"/>
</clipPath>
</defs>
</svg>
